<?xml version="1.0" standalone="yes"?>

<svg version="1.1" viewBox="0.0 0.0 341.1679790026247 345.1049868766404" fill="none" stroke="none" stroke-linecap="square" stroke-miterlimit="10" xmlns="http://www.w3.org/2000/svg" xmlns:xlink="http://www.w3.org/1999/xlink">
  <clipPath id="p.0">
    <path d="m0 0l341.16797 0l0 345.10498l-341.16797 0l0 -345.10498z" clip-rule="nonzero"></path>
  </clipPath>
  <g clip-path="url(#p.0)">
    <path fill="#000000" fill-opacity="0.0" d="m0 0l341.16797 0l0 345.10498l-341.16797 0z" fill-rule="evenodd"></path>
    <path fill="#000000" fill-opacity="0.0" d="m6.6811357 6.613037l328.28348 0l0 331.1496l-328.28348 0z" fill-rule="evenodd"></path>
    <path stroke="#000000" stroke-width="12.0" stroke-linejoin="round" stroke-linecap="butt" d="m6.6811357 6.613037l328.28348 0l0 331.1496l-328.28348 0z" fill-rule="evenodd"></path>
    <path fill="#000000" fill-opacity="0.0" d="m14.979484 13.251218l75.968506 0l0 80.28346l-75.968506 0z" fill-rule="evenodd"></path>
    <path fill="#000000" d="m38.756702 79.79295l0 -45.687504l29.750004 0l0 7.046875l-21.765629 0l0 11.28125l18.031254 0l0 7.203125l-18.031254 0l0 13.109379l21.625004 0l0 7.046875l-29.609379 0z" fill-rule="nonzero"></path>
    <path fill="#000000" fill-opacity="0.0" d="m92.84029 13.251218l75.968506 0l0 80.28346l-75.968506 0z" fill-rule="evenodd"></path>
    <path fill="#000000" d="m116.96126 34.10545l9.0 0l0 0.828125q-0.40625 0.421875 -0.515625 0.953125q-0.09375 0.515625 -0.0625 1.734375l0 35.26563l20.765625 0l0 6.90625l-29.1875 0l0 -45.687504z" fill-rule="nonzero"></path>
    <path fill="#000000" fill-opacity="0.0" d="m170.7011 13.251218l75.968506 0l0 80.28346l-75.968506 0z" fill-rule="evenodd"></path>
    <path fill="#000000" d="m192.54082 79.79295l0 -45.687504l8.65625 0l7.703125 21.484375l7.625 -21.5625l8.734375 0l0 45.76563l-7.40625 0l0 -33.156254l-6.375 17.265625l-5.4375 0l-6.15625 -17.265625l0 33.156254l-7.34375 0z" fill-rule="nonzero"></path>
    <path fill="#000000" fill-opacity="0.0" d="m248.5619 13.251218l75.96849 0l0 80.28346l-75.96849 0z" fill-rule="evenodd"></path>
    <path fill="#000000" d="m288.9016 74.52733q4.65625 0 8.28125 -6.40625l6.234375 4.046875q-2.578125 4.40625 -6.375 6.6875q-3.796875 2.265625 -8.671875 2.265625q-5.15625 0 -9.234375 -2.640625q-4.078125 -2.65625 -6.453125 -8.046875q-2.359375 -5.390625 -2.359375 -13.234379q0 -8.484375 2.734375 -13.921875q2.75 -5.453125 6.984375 -7.90625q4.25 -2.453125 9.015625 -2.453125q5.1875 0 8.984375 2.765625q3.796875 2.75 5.875 7.65625l-5.953125 2.90625l-0.0625 0.03125l0 -0.03125q-1.359375 -3.765625 -3.625 -5.234375q-2.25 -1.46875 -5.015625 -1.46875q-5.296875 0 -7.859375 4.59375q-2.546875 4.578125 -2.546875 12.703125q0 4.984375 1.265625 9.015629q1.265625 4.015625 3.578125 6.34375q2.3125 2.328125 5.203125 2.328125zm8.140625 -28.750004q0 -0.109375 0.109375 -0.109375q0.09375 0 0.3125 0.3125q0.21875 0.296875 0.28125 0.375l-0.34375 0.171875l-0.359375 -0.75zm1.03125 1.0q0 0.078125 -0.109375 -0.0625q-0.109375 -0.15625 -0.21875 -0.359375l0.15625 -0.078125l0.171875 0.5z" fill-rule="nonzero"></path>
    <path fill="#000000" fill-opacity="0.0" d="m14.979484 90.58455l75.968506 0l0 80.28346l-75.968506 0z" fill-rule="evenodd"></path>
    <path fill="#000000" d="m40.006702 157.12628l0 -6.796875l8.843754 0l0 -32.046875l-8.421879 0l0 -6.84375l25.500004 0l0 6.84375l-8.84375 0l0 32.109375l9.234375 0l0 6.734375l-26.312504 0z" fill-rule="nonzero"></path>
    <path fill="#000000" fill-opacity="0.0" d="m92.84029 90.58455l75.968506 0l0 80.28346l-75.968506 0z" fill-rule="evenodd"></path>
    <path fill="#000000" d="m126.35188 157.12628l0 -38.5625l-12.390625 0l0 -7.125l33.65625 0l0 7.125l-12.890625 0l0 38.5625l-8.375 0z" fill-rule="nonzero"></path>
    <path fill="#000000" fill-opacity="0.0" d="m170.7011 90.58455l75.968506 0l0 80.28346l-75.968506 0z" fill-rule="evenodd"></path>
    <path fill="#000000" d="m205.10332 157.12628l0 -18.046875l-14.109375 -27.640625l9.171875 0l9.421875 18.46875l8.328125 -18.46875l8.890625 0l-13.078125 27.71875l0 17.96875l-8.625 0z" fill-rule="nonzero"></path>
    <path fill="#000000" fill-opacity="0.0" d="m248.5619 90.58455l75.96849 0l0 80.28346l-75.96849 0z" fill-rule="evenodd"></path>
    <path fill="#000000" d="m288.9016 151.86066q4.65625 0 8.28125 -6.40625l6.234375 4.046875q-2.578125 4.40625 -6.375 6.6875q-3.796875 2.265625 -8.671875 2.265625q-5.15625 0 -9.234375 -2.640625q-4.078125 -2.65625 -6.453125 -8.046875q-2.359375 -5.390625 -2.359375 -13.234375q0 -8.484375 2.734375 -13.921875q2.75 -5.453125 6.984375 -7.90625q4.25 -2.453125 9.015625 -2.453125q5.1875 0 8.984375 2.765625q3.796875 2.75 5.875 7.65625l-5.953125 2.90625l-0.0625 0.03125l0 -0.03125q-1.359375 -3.765625 -3.625 -5.234375q-2.25 -1.46875 -5.015625 -1.46875q-5.296875 0 -7.859375 4.59375q-2.546875 4.578125 -2.546875 12.703125q0 4.984375 1.265625 9.015625q1.265625 4.015625 3.578125 6.34375q2.3125 2.328125 5.203125 2.328125zm8.140625 -28.75q0 -0.109375 0.109375 -0.109375q0.09375 0 0.3125 0.3125q0.21875 0.296875 0.28125 0.375l-0.34375 0.171875l-0.359375 -0.75zm1.03125 1.0q0 0.078125 -0.109375 -0.0625q-0.109375 -0.15625 -0.21875 -0.359375l0.15625 -0.078125l0.171875 0.5z" fill-rule="nonzero"></path>
    <path fill="#000000" fill-opacity="0.0" d="m14.979484 167.91788l75.968506 0l0 80.28348l-75.968506 0z" fill-rule="evenodd"></path>
    <path fill="#000000" d="m38.069202 188.77211l14.468754 0q8.203125 0 12.078125 3.609375q3.890625 3.59375 3.890625 10.03125q0 2.515625 -1.09375 5.015625q-1.09375 2.5 -3.078125 4.421875q-1.984375 1.921875 -4.5625 2.734375l10.703125 19.875l-9.234375 0l-9.453125 -18.90625l-5.343754 0l0 18.90625l-8.375 0l0 -45.6875zm14.968754 19.796875q3.546875 0 5.296875 -1.640625q1.75 -1.65625 1.75 -4.515625q0 -3.21875 -1.703125 -4.796875q-1.6875 -1.578125 -5.34375 -1.578125l-6.593754 0l0 12.53125l6.593754 0z" fill-rule="nonzero"></path>
    <path fill="#000000" fill-opacity="0.0" d="m92.84029 167.91788l75.968506 0l0 80.28348l-75.968506 0z" fill-rule="evenodd"></path>
    <path fill="#000000" d="m116.61751 234.45961l0 -45.6875l29.75 0l0 7.046875l-21.765625 0l0 11.28125l18.03125 0l0 7.203125l-18.03125 0l0 13.109375l21.625 0l0 7.046875l-29.609375 0z" fill-rule="nonzero"></path>
    <path fill="#000000" fill-opacity="0.0" d="m170.7011 167.91788l75.968506 0l0 80.28348l-75.968506 0z" fill-rule="evenodd"></path>
    <path fill="#000000" d="m217.77519 234.45961l-3.25 -11.8125l-11.671875 0l-3.328125 11.8125l-8.453125 0l15.25 -45.6875l4.796875 0l15.25 45.6875l-8.59375 0zm-13.3125 -17.515625l8.484375 0l-4.1875 -15.171875l-4.296875 15.171875z" fill-rule="nonzero"></path>
    <path fill="#000000" fill-opacity="0.0" d="m248.5619 167.91788l75.96849 0l0 80.28348l-75.96849 0z" fill-rule="evenodd"></path>
    <path fill="#000000" d="m282.0735 234.45961l0 -38.5625l-12.390625 0l0 -7.125l33.65625 0l0 7.125l-12.890625 0l0 38.5625l-8.375 0z" fill-rule="nonzero"></path>
    <path fill="#000000" fill-opacity="0.0" d="m14.979484 245.25122l75.968506 0l0 80.28345l-75.968506 0z" fill-rule="evenodd"></path>
    <path fill="#000000" d="m40.006702 311.79294l0 -6.796875l8.843754 0l0 -32.046875l-8.421879 0l0 -6.84375l25.500004 0l0 6.84375l-8.84375 0l0 32.109375l9.234375 0l0 6.734375l-26.312504 0z" fill-rule="nonzero"></path>
    <path fill="#000000" fill-opacity="0.0" d="m92.84029 245.25122l75.968506 0l0 80.28345l-75.968506 0z" fill-rule="evenodd"></path>
    <path fill="#000000" d="m128.03938 311.79294l-14.828125 -45.6875l8.65625 0l9.59375 32.40625l9.109375 -32.40625l8.4375 0l-14.671875 45.6875l-6.296875 0z" fill-rule="nonzero"></path>
    <path fill="#000000" fill-opacity="0.0" d="m170.7011 245.25122l75.968506 0l0 80.28345l-75.968506 0z" fill-rule="evenodd"></path>
    <path fill="#000000" d="m194.47832 311.79294l0 -45.6875l29.75 0l0 7.046875l-21.765625 0l0 11.28125l18.03125 0l0 7.203125l-18.03125 0l0 13.109375l21.625 0l0 7.046875l-29.609375 0z" fill-rule="nonzero"></path>
    <path fill="#000000" fill-opacity="0.0" d="m248.5619 245.25122l75.96849 0l0 80.28345l-75.96849 0z" fill-rule="evenodd"></path>
    <path fill="#000000" d="m289.97974 285.3398q4.65625 2.21875 7.234375 4.28125q2.578125 2.046875 3.65625 4.3125q1.078125 2.25 1.078125 5.25q0 3.65625 -1.6875 6.828125q-1.6875 3.171875 -5.328125 5.140625q-3.625 1.96875 -9.203125 1.96875q-8.921875 0 -15.46875 -6.375l3.578125 -6.234375l0.03125 -0.0625l0.078125 0.0625q5.328125 5.546875 12.453125 5.546875q3.4375 0 5.3125 -1.609375q1.890625 -1.609375 1.890625 -4.828125q0 -1.609375 -0.8125 -2.921875q-0.796875 -1.3125 -2.75 -2.625q-1.953125 -1.328125 -5.390625 -2.875q-6.375 -2.75 -9.25 -6.1875q-2.859375 -3.4375 -2.859375 -7.984375q0 -3.296875 1.84375 -6.0625q1.84375 -2.78125 5.078125 -4.40625q3.25 -1.640625 7.296875 -1.640625q4.546875 0 7.84375 1.515625q3.296875 1.5 6.296875 4.65625l-4.109375 5.71875l-0.046875 0.078125q-0.03125 0 -0.03125 -0.015625q0 -0.03125 0 -0.03125q-1.6875 -2.671875 -4.296875 -3.90625q-2.609375 -1.234375 -5.734375 -1.234375q-2.0 0 -3.453125 0.703125q-1.453125 0.6875 -2.1875 1.84375q-0.71875 1.140625 -0.71875 2.5q0 1.609375 0.828125 2.84375q0.84375 1.234375 2.875 2.546875q2.046875 1.296875 5.953125 3.203125zm5.765625 -8.5625q0 -0.078125 0.078125 -0.078125q0.0625 0 0.296875 0.1875q0.234375 0.171875 0.421875 0.28125l-0.109375 0.1875l-0.6875 -0.46875l0 -0.109375zm1.0 0.109375q0.25 0.390625 0.25 0.5q0 0.03125 -0.03125 0.03125q-0.109375 0 -0.421875 -0.25l0.203125 -0.28125zm-21.828125 23.59375q0 0.0625 -0.078125 0.0625q-0.109375 0 -0.375 -0.140625q-0.265625 -0.140625 -0.453125 -0.203125l0.140625 -0.25l0.71875 0.421875l0.046875 0.109375zm-1.046875 -0.03125q-0.28125 -0.296875 -0.28125 -0.40625q0 0 0 -0.015625q0 -0.015625 0.03125 -0.015625l0.390625 0.1875l-0.140625 0.25z" fill-rule="nonzero"></path>
  </g>
</svg>

