<?xml version="1.0" standalone="yes"?>

<svg version="1.1" viewBox="0.0 0.0 100.0 100.0" fill="none" stroke="none" stroke-linecap="square" stroke-miterlimit="10" xmlns="http://www.w3.org/2000/svg" xmlns:xlink="http://www.w3.org/1999/xlink">
  <clipPath id="p.0">
    <path d="m0 0l100.0 0l0 100.0l-100.0 0l0 -100.0z" clip-rule="nonzero"></path>
  </clipPath>
  <g clip-path="url(#p.0)">
    <path fill="#000000" fill-opacity="0.0" d="m0 0l100.0 0l0 100.0l-100.0 0z" fill-rule="evenodd"></path>
    <path fill="#000000" fill-opacity="0.0" d="m6.144905 -12.572978l63.307083 0l0 72.7874l-63.307083 0z" fill-rule="evenodd"></path>
    <path fill="#000000" d="m39.676155 28.819519q0 0.578125 -0.4375 1.0q-0.4375 0.40625 -1.0 0.40625l-18.15625 0q0 2.875 1.171875 5.15625q1.1875 2.28125 3.359375 3.609375q2.1875 1.3125 5.171875 1.3125q2.296875 0 4.125 -0.953125q1.828125 -0.96875 2.9375 -2.453125q0.515625 -0.4375 1.0 -0.4375q0.484375 0 0.859375 0.390625q0.390625 0.375 0.390625 0.859375q0 0.53125 -0.484375 1.0q-1.53125 1.875 -3.859375 3.078125q-2.328125 1.203125 -4.921875 1.203125q-3.703125 0 -6.53125 -1.578125q-2.828125 -1.59375 -4.421875 -4.453125q-1.578125 -2.859375 -1.578125 -6.59375q0 -3.9375 1.5625 -6.890625q1.5625 -2.953125 4.15625 -4.515625q2.59375 -1.5625 5.515625 -1.5625q2.875 0 5.390625 1.34375q2.53125 1.34375 4.109375 3.9375q1.59375 2.59375 1.640625 6.140625zm-11.140625 -8.625q-2.78125 0 -5.15625 1.921875q-2.375 1.90625 -3.046875 5.515625l16.359375 0l0 -0.390625q-0.234375 -2.15625 -1.4375 -3.765625q-1.203125 -1.609375 -3.0 -2.4375q-1.796875 -0.84375 -3.71875 -0.84375z" fill-rule="nonzero"></path>
    <path fill="#000000" fill-opacity="0.0" d="m-2.0309477 -13.095288l63.307087 0l0 72.7874l-63.307087 0z" fill-rule="evenodd"></path>
    <path fill="#000000" d="m41.65655 13.788455q0.859375 0.53125 0.859375 1.4375q0 0.515625 -0.40625 1.156251q-0.515625 0.625 -1.3125 0.625q-0.46875 0 -0.921875 -0.28125q-4.59375 -3.046876 -10.03125 -3.046876q-4.640625 0 -8.40625 2.1875q-3.75 2.171876 -5.906249 6.109376q-2.140625 3.921875 -2.140625 8.90625q0 5.09375 2.171875 9.03125q2.187499 3.921875 5.937499 6.078125q3.75 2.140625 8.34375 2.140625q5.4375 0 9.96875 -2.984375q0.46875 -0.28125 0.984375 -0.28125q0.796875 0 1.3125 0.6875q0.40625 0.453125 0.40625 1.09375q0 0.921875 -0.8125 1.375q-2.234375 1.484375 -5.5 2.5q-3.265625 1.0 -6.359375 1.0q-5.453125 0 -10.0625 -2.609375q-4.609374 -2.609375 -7.343749 -7.3125q-2.71875 -4.703125 -2.71875 -10.71875q0 -5.796875 2.6875 -10.515625q2.703125 -4.734376 7.281249 -7.390626q4.59375 -2.671875 10.15625 -2.671875q3.203125 0 6.265625 0.921875q3.078125 0.90625 5.546875 2.5625z" fill-rule="nonzero"></path>
    <path fill="#000000" fill-opacity="0.0" d="m-13.195783 -30.501883l63.307087 0l0 72.7874l-63.307087 0z" fill-rule="evenodd"></path>
    <path fill="#000000" d="m47.42922 5.1212416q1.28125 0.765625 1.28125 2.140625q0 0.765625 -0.59375 1.703125q-0.78125 0.9375 -1.96875 0.9375q-0.6875 0 -1.359375 -0.421875q-6.828125 -4.53125 -14.937502 -4.53125q-6.90625 0 -12.5 3.25q-5.593749 3.234375 -8.796874 9.093749q-3.1875005 5.84375 -3.1875005 13.265625q0 7.593752 3.2343755 13.437502q3.25 5.84375 8.828124 9.046875q5.59375 3.1875 12.421875 3.1875q8.109377 0 14.843752 -4.4375q0.6875 -0.421875 1.453125 -0.421875q1.1875 0 1.96875 1.03125q0.59375 0.671875 0.59375 1.609375q0 1.375 -1.203125 2.046875q-3.328125 2.21875 -8.1875 3.71875q-4.859375 1.5 -9.468752 1.5q-8.109375 0 -14.984374 -3.875q-6.859375 -3.890625 -10.921875 -10.890625q-4.046875 -7.0 -4.046875 -15.953127q0 -8.625 4.0 -15.656249q4.015625 -7.046875 10.84375 -11.015625q6.828124 -3.96875 15.109374 -3.96875q4.781252 0 9.343752 1.375q4.5625 1.359375 8.234375 3.828125z" fill-rule="nonzero"></path>
  </g>
</svg>

