<svg id="header_name" version="1.1" viewBox="0.0 0.0 403.3044619422572 61.5" fill="#ffffff" stroke="none" stroke-linecap="square" stroke-miterlimit="10" xmlns="http://www.w3.org/2000/svg" xmlns:xlink="http://www.w3.org/1999/xlink">
  <clipPath id="p.0">
    <path d="m0 0l403.30447 0l0 100.0l-403.30447 0l0 -100.0z" clip-rule="nonzero"></path>
  </clipPath>
  <g class="logo_name_path" clip-path="url(#p.0)">
    <path fill="inherit" class="name_letters" fill-opacity="0.0" d="m0 0l403.30447 0l0 100.0l-403.30447 0z" fill-rule="evenodd"></path>
    <path fill="inherit" class="name_letters" fill-opacity="0.0" d="m6.577499 -11.374252l425.0709 0l0 72.7874l-425.0709 0z" fill-rule="evenodd"></path>
    <path fill="inherit" class="name_letters" d="m41.73375 30.268246q-0.046875 1.15625 -0.90625 1.875q-0.859375 0.71875 -2.015625 0.71875l-15.84375 0q0.578125 2.828125 2.640625 4.4375q2.0625 1.609375 4.65625 1.609375q1.96875 0 3.0625 -0.359375q1.109375 -0.359375 1.75 -0.765625q0.65625 -0.421875 0.90625 -0.5625q0.859375 -0.421875 1.625 -0.421875q1.015625 0 1.734375 0.71875q0.71875 0.71875 0.71875 1.671875q0 1.296875 -1.34375 2.359375q-1.34375 1.09375 -3.609375 1.875q-2.25 0.765625 -4.5625 0.765625q-4.03125 0 -7.03125 -1.671875q-3.0 -1.6875 -4.625 -4.640625q-1.625 -2.953125 -1.625 -6.65625q0 -4.125 1.71875 -7.234375q1.734375 -3.125 4.5625 -4.78125q2.828125 -1.65625 6.046875 -1.65625q3.171875 0 5.96875 1.734375q2.8125 1.71875 4.484375 4.65625q1.6875 2.921875 1.6875 6.328125zm-12.140625 -7.4375q-5.5625 0 -6.578125 5.234375l12.578125 0l0 -0.34375q-0.1875 -2.015625 -1.96875 -3.453125q-1.78125 -1.4375 -4.03125 -1.4375zm23.183807 17.953125q0 1.234375 -0.84375 2.078125q-0.828125 0.84375 -2.078125 0.84375q-1.203125 0 -2.03125 -0.84375q-0.8125 -0.84375 -0.8125 -2.078125l0 -29.671875q0 -1.25 0.84375 -2.078125q0.84375 -0.84375 2.09375 -0.84375q1.203125 0 2.015625 0.84375q0.8125 0.828125 0.8125 2.078125l0 29.671875zm36.335022 -23.234375q4.75 0 6.578125 2.90625q1.828125 2.890625 1.828125 8.03125l0 12.296875q0 1.234375 -0.828125 2.078125q-0.8125 0.84375 -2.0625 0.84375q-1.234375 0 -2.0625 -0.84375q-0.8125 -0.84375 -0.8125 -2.078125l0 -12.296875q0 -2.640625 -1.03125 -4.140625q-1.03125 -1.515625 -3.625 -1.515625q-2.6875 0 -4.203125 1.609375q-1.5 1.609375 -1.5 4.046875l0 12.296875q0 1.234375 -0.828125 2.078125q-0.8125 0.84375 -2.0625 0.84375q-1.25 0 -2.0625 -0.84375q-0.8125 -0.84375 -0.8125 -2.078125l0 -12.296875q0 -2.640625 -1.03125 -4.140625q-1.03125 -1.515625 -3.625 -1.515625q-2.6875 0 -4.203125 1.609375q-1.515625 1.609375 -1.515625 4.046875l0 12.296875q0 1.234375 -0.8125 2.078125q-0.8125 0.84375 -2.0625 0.84375q-1.25 0 -2.0625 -0.84375q-0.8125 -0.84375 -0.8125 -2.078125l0 -19.828125q0 -1.25 0.8125 -2.09375q0.8125 -0.84375 2.0625 -0.84375q1.25 0 2.0625 0.84375q0.8125 0.84375 0.8125 2.09375l0 0.765625q1.296875 -1.734375 3.28125 -2.953125q2.0 -1.21875 4.453125 -1.21875q6.046875 0 7.734375 5.28125q1.09375 -2.015625 3.328125 -3.640625q2.234375 -1.640625 5.0625 -1.640625z" fill-rule="nonzero"></path>
    <path fill="inherit" class="name_letters" d="m128.14394 18.59637q2.25 0 4.1875 0.515625q1.953125 0.5 3.125 1.359375q1.171875 0.859375 1.171875 1.875q0 0.53125 -0.359375 0.96875q-0.359375 0.421875 -0.890625 0.421875q-0.46875 0 -0.78125 -0.1875q-0.3125 -0.203125 -0.703125 -0.578125q-0.625 -0.625 -1.203125 -0.90625q-0.71875 -0.34375 -1.890625 -0.5625q-1.171875 -0.21875 -2.515625 -0.21875q-2.640625 0 -4.828125 1.34375q-2.1875 1.34375 -3.4375 3.65625q-1.234375 2.296875 -1.234375 5.078125q0 2.890625 1.1875 5.203125q1.203125 2.296875 3.34375 3.625q2.140625 1.3125 4.875 1.3125q1.71875 0 2.75 -0.28125q1.03125 -0.296875 2.046875 -0.828125q0.328125 -0.1875 1.15625 -0.859375q0.375 -0.34375 0.65625 -0.5q0.296875 -0.171875 0.640625 -0.171875q0.5625 0 0.890625 0.359375q0.34375 0.359375 0.34375 0.9375q0 0.8125 -1.15625 1.75q-1.140625 0.9375 -3.15625 1.609375q-2.015625 0.671875 -4.46875 0.671875q-3.5 0 -6.234375 -1.65625q-2.734375 -1.65625 -4.25 -4.578125q-1.515625 -2.9375 -1.515625 -6.59375q0 -3.5 1.53125 -6.390625q1.546875 -2.90625 4.328125 -4.640625q2.78125 -1.734375 6.390625 -1.734375zm16.843918 23.671875q0 0.625 -0.40625 1.03125q-0.40625 0.40625 -1.03125 0.40625q-0.625 0 -1.03125 -0.40625q-0.40625 -0.40625 -0.40625 -1.03125l0 -22.078125q0 -0.625 0.40625 -1.03125q0.40625 -0.40625 1.03125 -0.40625q0.625 0 1.03125 0.40625q0.40625 0.40625 0.40625 1.03125l0 22.078125zm-0.953125 -26.78125q-0.953125 0 -1.484375 -0.453125q-0.53125 -0.46875 -0.53125 -1.328125l0 -0.484375q0 -0.859375 0.546875 -1.3125q0.5625 -0.453125 1.53125 -0.453125q1.90625 0 1.90625 1.765625l0 0.484375q0 0.859375 -0.5 1.328125q-0.5 0.453125 -1.46875 0.453125zm13.240768 6.46875l0 16.09375q0 1.8125 0.671875 2.46875q0.671875 0.640625 1.78125 0.640625q0.28125 0 0.703125 -0.109375q0.4375 -0.125 0.6875 -0.125q0.421875 0 0.734375 0.359375q0.3125 0.359375 0.3125 0.84375q0 0.671875 -0.765625 1.125q-0.765625 0.453125 -1.828125 0.453125q-1.296875 0 -2.3125 -0.234375q-1.0 -0.25 -1.9375 -1.4375q-0.921875 -1.203125 -0.921875 -3.84375l0 -16.234375l-3.515625 0q-0.578125 0 -0.984375 -0.375q-0.40625 -0.390625 -0.40625 -0.96875q0 -0.5625 0.40625 -0.953125q0.40625 -0.390625 0.984375 -0.390625l3.515625 0l0 -5.328125q0 -0.625 0.40625 -1.03125q0.40625 -0.40625 1.03125 -0.40625q0.625 0 1.03125 0.40625q0.40625 0.40625 0.40625 1.03125l0 5.328125l4.796875 0q0.53125 0 0.9375 0.4375q0.40625 0.4375 0.40625 0.953125q0 0.578125 -0.390625 0.9375q-0.375 0.359375 -0.953125 0.359375l-4.796875 0zm29.756409 -3.203125q0.625 0 1.03125 0.40625q0.40625 0.40625 0.40625 1.03125l0 21.15625q0 3.796875 -1.484375 6.484375q-1.484375 2.6875 -4.125 4.078125q-2.640625 1.3906288 -5.953125 1.3906288q-2.015625 0 -3.765625 -0.4375q-1.75 -0.4218788 -2.90625 -1.1406288q-1.015625 -0.625 -1.015625 -1.390625q0 -0.09375 0.109375 -0.484375q0.140625 -0.484375 0.46875 -0.71875q0.34375 -0.234375 0.71875 -0.234375q0.296875 0 0.578125 0.140625q3.078125 1.6875 5.859375 1.6875q3.984375 0 6.3125 -2.5q2.328125 -2.5 2.328125 -6.8125l0 -1.6875q-1.203125 2.015625 -3.46875 3.25q-2.25 1.21875 -4.890625 1.21875q-4.171875 0 -6.328125 -2.5q-2.15625 -2.5 -2.15625 -6.765625l0 -14.734375q0 -0.625 0.40625 -1.03125q0.40625 -0.40625 1.03125 -0.40625q0.625 0 1.03125 0.40625q0.40625 0.40625 0.40625 1.03125l0 14.296875q0 3.453125 1.515625 5.234375q1.515625 1.78125 4.71875 1.78125q1.96875 0 3.765625 -0.984375q1.8125 -0.984375 2.890625 -2.59375q1.078125 -1.609375 1.078125 -3.4375l0 -14.296875q0 -0.625 0.40625 -1.03125q0.40625 -0.40625 1.03125 -0.40625zm32.696198 -0.15625q2.25 0 4.1875 0.515625q1.953125 0.5 3.125 1.359375q1.171875 0.859375 1.171875 1.875q0 0.53125 -0.359375 0.96875q-0.359375 0.421875 -0.890625 0.421875q-0.46875 0 -0.78125 -0.1875q-0.3125 -0.203125 -0.703125 -0.578125q-0.625 -0.625 -1.203125 -0.90625q-0.71875 -0.34375 -1.890625 -0.5625q-1.171875 -0.21875 -2.515625 -0.21875q-2.640625 0 -4.828125 1.34375q-2.1875 1.34375 -3.4375 3.65625q-1.234375 2.296875 -1.234375 5.078125q0 2.890625 1.1875 5.203125q1.203125 2.296875 3.34375 3.625q2.140625 1.3125 4.875 1.3125q1.71875 0 2.75 -0.28125q1.03125 -0.296875 2.046875 -0.828125q0.328125 -0.1875 1.15625 -0.859375q0.375 -0.34375 0.65625 -0.5q0.296875 -0.171875 0.640625 -0.171875q0.5625 0 0.890625 0.359375q0.34375 0.359375 0.34375 0.9375q0 0.8125 -1.15625 1.75q-1.140625 0.9375 -3.15625 1.609375q-2.015625 0.671875 -4.46875 0.671875q-3.5 0 -6.234375 -1.65625q-2.734375 -1.65625 -4.25 -4.578125q-1.515625 -2.9375 -1.515625 -6.59375q0 -3.5 1.53125 -6.390625q1.546875 -2.90625 4.328125 -4.640625q2.78125 -1.734375 6.390625 -1.734375zm25.531418 0q0.953125 0 1.71875 0.390625q0.78125 0.375 0.78125 1.15625q0 0.671875 -0.390625 1.078125q-0.390625 0.40625 -0.90625 0.40625q-0.25 0 -0.953125 -0.234375q-0.6875 -0.25 -1.3125 -0.25q-1.765625 0 -3.53125 1.375q-1.75 1.359375 -2.875 3.53125q-1.125 2.15625 -1.125 4.359375l0 11.859375q0 0.625 -0.40625 1.03125q-0.40625 0.40625 -1.03125 0.40625q-0.625 0 -1.03125 -0.40625q-0.40625 -0.40625 -0.40625 -1.03125l0 -21.5q0 -0.625 0.40625 -1.03125q0.40625 -0.421875 1.03125 -0.421875q0.625 0 1.03125 0.421875q0.40625 0.40625 0.40625 1.03125l0 4.21875q1.109375 -2.734375 3.328125 -4.53125q2.234375 -1.8125 5.265625 -1.859375zm27.745636 11.421875q0 0.578125 -0.4375 1.0q-0.4375 0.40625 -1.0 0.40625l-18.15622 0q0 2.875 1.171875 5.15625q1.1875 2.28125 3.359375 3.609375q2.1875 1.3125 5.1718445 1.3125q2.296875 0 4.125 -0.953125q1.828125 -0.96875 2.9375 -2.453125q0.515625 -0.4375 1.0 -0.4375q0.484375 0 0.859375 0.390625q0.390625 0.375 0.390625 0.859375q0 0.53125 -0.484375 1.0q-1.53125 1.875 -3.859375 3.078125q-2.328125 1.203125 -4.921875 1.203125q-3.7030945 0 -6.5312195 -1.578125q-2.828125 -1.59375 -4.421875 -4.453125q-1.578125 -2.859375 -1.578125 -6.59375q0 -3.9375 1.5625 -6.890625q1.5625 -2.953125 4.15625 -4.515625q2.59375 -1.5625 5.515625 -1.5625q2.8749695 0 5.3905945 1.34375q2.53125 1.34375 4.109375 3.9375q1.59375 2.59375 1.640625 6.140625zm-11.1405945 -8.625q-2.78125 0 -5.15625 1.921875q-2.375 1.90625 -3.046875 5.515625l16.359344 0l0 -0.390625q-0.234375 -2.15625 -1.4375 -3.765625q-1.203125 -1.609375 -3.0 -2.4375q-1.796875 -0.84375 -3.7187195 -0.84375zm37.016144 -2.21875q0.625 0 1.03125 0.4375q0.40625 0.4375 0.40625 1.046875l0 21.609375q0 0.625 -0.40625 1.03125q-0.40625 0.40625 -1.03125 0.40625q-0.625 0 -1.046875 -0.40625q-0.40625 -0.40625 -0.40625 -1.03125l0 -3.21875q-1.1875 2.15625 -3.59375 3.65625q-2.40625 1.484375 -5.234375 1.484375q-3.21875 0 -5.78125 -1.671875q-2.5625 -1.6875 -4.03125 -4.609375q-1.46875 -2.9375 -1.46875 -6.59375q0 -3.640625 1.484375 -6.546875q1.5 -2.90625 4.0625 -4.53125q2.5625 -1.640625 5.6875 -1.640625q2.875 0 5.28125 1.40625q2.40625 1.390625 3.59375 3.640625l0 -2.984375q0 -0.609375 0.40625 -1.046875q0.421875 -0.4375 1.046875 -0.4375zm-9.984375 22.328125q2.484375 0 4.46875 -1.3125q2.0 -1.328125 3.125 -3.65625q1.140625 -2.328125 1.140625 -5.21875q0 -2.78125 -1.140625 -5.078125q-1.125 -2.3125 -3.125 -3.625q-1.984375 -1.328125 -4.46875 -1.328125q-2.5 0 -4.5 1.296875q-1.984375 1.296875 -3.125 3.578125q-1.125 2.28125 -1.125 5.15625q0 2.890625 1.109375 5.21875q1.109375 2.328125 3.09375 3.65625q2.0 1.3125 4.546875 1.3125zm23.755432 -19.546875l0 16.09375q0 1.8125 0.671875 2.46875q0.671875 0.640625 1.78125 0.640625q0.28125 0 0.703125 -0.109375q0.4375 -0.125 0.6875 -0.125q0.421875 0 0.734375 0.359375q0.3125 0.359375 0.3125 0.84375q0 0.671875 -0.765625 1.125q-0.765625 0.453125 -1.828125 0.453125q-1.296875 0 -2.3125 -0.234375q-1.0 -0.25 -1.9375 -1.4375q-0.921875 -1.203125 -0.921875 -3.84375l0 -16.234375l-3.515625 0q-0.578125 0 -0.984375 -0.375q-0.40625 -0.390625 -0.40625 -0.96875q0 -0.5625 0.40625 -0.953125q0.40625 -0.390625 0.984375 -0.390625l3.515625 0l0 -5.328125q0 -0.625 0.40625 -1.03125q0.40625 -0.40625 1.03125 -0.40625q0.625 0 1.03125 0.40625q0.40625 0.40625 0.40625 1.03125l0 5.328125l4.796875 0q0.53125 0 0.9375 0.4375q0.40625 0.4375 0.40625 0.953125q0 0.578125 -0.390625 0.9375q-0.375 0.359375 -0.953125 0.359375l-4.796875 0zm14.256409 20.3125q0 0.625 -0.40625 1.03125q-0.40625 0.40625 -1.03125 0.40625q-0.625 0 -1.03125 -0.40625q-0.40625 -0.40625 -0.40625 -1.03125l0 -22.078125q0 -0.625 0.40625 -1.03125q0.40625 -0.40625 1.03125 -0.40625q0.625 0 1.03125 0.40625q0.40625 0.40625 0.40625 1.03125l0 22.078125zm-0.953125 -26.78125q-0.953125 0 -1.484375 -0.453125q-0.53125 -0.46875 -0.53125 -1.328125l0 -0.484375q0 -0.859375 0.546875 -1.3125q0.5625 -0.453125 1.53125 -0.453125q1.90625 0 1.90625 1.765625l0 0.484375q0 0.859375 -0.5 1.328125q-0.5 0.453125 -1.46875 0.453125zm26.959534 3.203125q0.484375 0 0.90625 0.34375q0.4375 0.328125 0.4375 0.859375q0 0.4375 -0.1875 0.828125l-9.40625 22.078125q-0.1875 0.375 -0.546875 0.640625q-0.359375 0.265625 -0.75 0.265625q-0.484375 0.046875 -0.875 -0.1875q-0.375 -0.25 -0.5625 -0.71875l-9.453125 -22.078125q0 -0.109375 -0.078125 -0.296875q-0.0625 -0.1875 -0.0625 -0.375q0 -0.578125 0.375 -0.984375q0.390625 -0.421875 1.109375 -0.421875q0.421875 0 0.78125 0.265625q0.375 0.265625 0.5625 0.703125l8.15625 19.4375l8.203125 -19.4375q0.203125 -0.4375 0.5625 -0.703125q0.359375 -0.265625 0.828125 -0.21875zm27.610779 11.328125q0 0.578125 -0.4375 1.0q-0.4375 0.40625 -1.0 0.40625l-18.15625 0q0 2.875 1.171875 5.15625q1.1875 2.28125 3.359375 3.609375q2.1875 1.3125 5.171875 1.3125q2.296875 0 4.125 -0.953125q1.828125 -0.96875 2.9375 -2.453125q0.515625 -0.4375 1.0 -0.4375q0.484375 0 0.859375 0.390625q0.390625 0.375 0.390625 0.859375q0 0.53125 -0.484375 1.0q-1.53125 1.875 -3.859375 3.078125q-2.328125 1.203125 -4.921875 1.203125q-3.703125 0 -6.53125 -1.578125q-2.828125 -1.59375 -4.421875 -4.453125q-1.578125 -2.859375 -1.578125 -6.59375q0 -3.9375 1.5625 -6.890625q1.5625 -2.953125 4.15625 -4.515625q2.59375 -1.5625 5.515625 -1.5625q2.875 0 5.390625 1.34375q2.53125 1.34375 4.109375 3.9375q1.59375 2.59375 1.640625 6.140625zm-11.140625 -8.625q-2.78125 0 -5.15625 1.921875q-2.375 1.90625 -3.046875 5.515625l16.359375 0l0 -0.390625q-0.234375 -2.15625 -1.4375 -3.765625q-1.203125 -1.609375 -3.0 -2.4375q-1.796875 -0.84375 -3.71875 -0.84375zm15.703674 18.421875q-0.390625 -0.625 -0.390625 -1.046875q0 -0.625 0.625 -0.96875q0.28125 -0.28125 0.765625 -0.28125q0.578125 0 1.0625 0.46875q2.828125 3.75 7.53125 3.75q2.296875 0 4.0 -1.078125q1.71875 -1.078125 1.71875 -3.140625q0 -2.015625 -1.59375 -3.015625q-1.578125 -1.015625 -4.40625 -1.734375q-3.984375 -1.015625 -6.25 -2.625q-2.25 -1.609375 -2.25 -4.71875q0 -1.96875 1.09375 -3.53125q1.109375 -1.5625 3.0 -2.421875q1.90625 -0.875 4.296875 -0.875q2.078125 0 4.15625 0.796875q2.09375 0.796875 3.578125 2.515625q0.4375 0.34375 0.4375 0.96875q0 0.578125 -0.484375 1.0q-0.34375 0.296875 -0.859375 0.296875q-0.484375 0 -0.875 -0.390625q-1.140625 -1.296875 -2.734375 -1.96875q-1.578125 -0.671875 -3.40625 -0.671875q-2.25 0 -3.859375 1.0625q-1.609375 1.046875 -1.609375 3.15625q0.09375 1.921875 1.75 2.9375q1.65625 1.0 4.875 1.828125q2.5 0.625 4.125 1.390625q1.640625 0.765625 2.671875 2.15625q1.03125 1.390625 1.03125 3.6875q0 3.125 -2.5 4.984375q-2.5 1.84375 -6.1875 1.84375q-5.859375 0 -9.3125 -4.375z" fill-rule="nonzero"></path>
    <path fill="inherit" class="name_letters" fill-opacity="0.0" d="m-10.023092 -6.9600987l62.267715 -11.496063l13.228344 71.590546l-62.267715 11.496067z" fill-rule="evenodd"></path>
    <path fill="inherit" class="name_letters" d="m37.823185 11.54445q0.9416237 0.3663826 1.1062889 1.2575474q0.09369278 0.50704193 -0.18940353 1.2107592q-0.39349365 0.70821 -1.177124 0.85288715q-0.4609604 0.08510399 -0.95765686 -0.10919762q-5.0710297 -2.162138 -10.418163 -1.1749334q-4.5635014 0.84252834 -7.869072 3.6772823q-3.293044 2.8165512 -4.6980076 7.0799847q-1.392437 4.2452316 -0.48676682 9.146633q0.92554474 5.008957 3.7767773 8.486599q2.8637562 3.4594383 6.9432297 4.898964q4.0766335 1.42416 8.59404 0.5901451q5.3471336 -0.9872055 9.260811 -4.7445717q0.4098549 -0.36167145 0.9169121 -0.45528793q0.7836304 -0.14467621 1.4156075 0.43776703q0.4818306 0.37182236 0.5982361 1.0017853q0.16750336 0.9065285 -0.54916 1.4996223q-1.9275246 1.8653297 -4.954338 3.4569397q-3.0296516 1.5762405 -6.071987 2.137928q-5.3624973 0.9900398 -10.369396 -0.7390442q-5.006899 -1.729084 -8.550399 -5.857479q-3.5281334 -4.131233 -4.6211843 -10.046719q-1.0533028 -5.7003784 0.73212624 -10.828508q1.7979565 -5.14633 5.8173504 -8.589544q4.0319214 -3.4614162 9.501978 -4.4713144q3.149891 -0.58154297 6.3290005 -0.2310257q3.191637 0.33231544 5.9203014 1.5127811z" fill-rule="nonzero"></path>
    <path fill="inherit" class="name_letters" fill-opacity="0.0" d="m-23.814196 -21.810524l89.637794 -16.535435l19.716537 106.897644l-89.6378 16.53543z" fill-rule="evenodd"></path>
    <path fill="inherit" class="name_letters" d="m42.266354 2.223796q1.3988647 0.5204954 1.6482658 1.8726873q0.13887405 0.7529254 -0.27497864 1.7825856q-0.5982399 1.0636749 -1.766037 1.2790976q-0.67609406 0.124718666 -1.4133415 -0.16827488q-7.536724 -3.2174063 -15.511547 -1.746295q-6.7916603 1.2528534 -11.703101 5.463699q-4.914275 4.1954794 -7.001458 10.538735q-2.0746512 6.325056 -0.7284446 13.623819q1.3773823 7.4677887 5.618053 12.627861q4.256036 5.157238 10.322601 7.295311q6.0790977 2.119873 12.793928 0.88119125q7.974823 -1.4711113 13.792572 -7.056679q0.5995712 -0.53959274 1.3524933 -0.6784859q1.1677971 -0.21542358 2.1231346 0.6569977q0.7057648 0.55301666 0.87581253 1.474968q0.2494049 1.3521919 -0.81189346 2.2311783q-2.8704567 2.785698 -7.3771286 5.1423492q-4.506672 2.3566513 -9.039566 3.192833q-7.974825 1.4711113 -15.438614 -1.0924301q-7.4512596 -2.5817375 -12.71604 -8.728653q-5.2494144 -6.149746 -6.873365 -14.954361q-1.5644342 -8.481932 1.0938431 -16.122187q2.6708088 -7.658453 8.665773 -12.800052q5.9949646 -5.141599 14.13881 -6.64389q4.7019196 -0.86736023 9.43812 -0.34284526q4.733368 0.50914913 8.792107 2.2708385z" fill-rule="nonzero"></path>
  </g>
</svg>

